<svg width="159" height="81" viewBox="0 0 159 81" fill="none" xmlns="http://www.w3.org/2000/svg">
<g clip-path="url(#clip0)">
<path d="M52.4445 22.1163C52.4445 22.1163 85.2222 16.9354 101.222 14.0386C124.833 9.80477 142.222 5.40381 142.222 5.40381C137.389 7.24219 116.778 12.2002 100.167 15.3199C61.4445 22.562 52.4445 22.1163 52.4445 22.1163Z" fill="#A72B2A"/>
<path d="M111.5 24.0659C113.111 25.3472 113.667 26.2943 113.944 27.0742L116.278 26.35C116.111 25.5143 115.5 24.7344 113.944 23.4531L111.5 24.0659Z" fill="#A72B2A"/>
<path d="M86.5555 29.9711C87.9444 31.0853 89 32.7009 89.2222 33.5365L91.7222 32.9794C91.5 31.9209 90.5 30.5282 89.1111 29.4141L86.5555 29.9711Z" fill="#A72B2A"/>
<path d="M157.778 0.50158C157.444 1.00296 155.889 2.50708 155.333 2.78562C154.667 3.17558 140 9.02496 99.4444 16.6013C86.6667 18.9968 70 22.0607 54.9444 24.2334C54.3889 24.2891 53.7778 24.2891 53.2222 24.1219C51.8889 23.732 49.8889 23.1749 47.8889 22.8406C46.1111 22.5621 44.2222 22.7849 42.9444 23.2306C42.6667 23.342 42.7222 23.6206 43 23.6206C44.2222 23.5649 45.2222 23.5649 46 24.4562C46 24.4562 15.1667 27.7987 11.1111 27.7987C8.88889 27.743 4.66667 26.1832 3.88889 25.8489C3.22222 25.5704 0 25.8489 0 25.8489L8.22222 33.4809C8.33333 33.5924 8.44444 33.6481 8.61111 33.6481C10.7222 34.038 28.4444 37.0463 43.8889 36.2107C58 35.4307 83.4444 30.3613 104.056 25.2918C124.444 20.2781 143.722 13.3702 146.111 12.3675C155.111 8.5793 157.611 5.12538 158.556 4.28975C158.667 4.17833 158.722 4.06692 158.722 3.9555L159.056 0.0559126C159 0.000204232 158.111 0.0559126 157.778 0.50158Z" fill="#A72B2A"/>
<path d="M75.1111 36.8234C65.3889 38.439 54.5 38.7175 54.5 38.7175C54.7222 39.1632 55.5 40.723 56.7222 41.4472C59.5 43.0071 67.2778 44.4555 81.7778 41.6144C93.2778 39.3303 110.444 33.8152 126.667 27.6316C131.889 25.6818 143 20.668 148.111 15.71C148.111 15.71 140.833 18.6625 133.056 21.3922C108.722 29.9713 89.2222 34.4837 75.1111 36.8234Z" fill="#A72B2A"/>
<path d="M5.88889 68.7442C7.22222 68.6328 8.11111 68.4656 8.5 68.1314C8.88889 67.8528 9.05555 67.1286 9.05555 66.0145V57.4911C9.05555 56.7112 8.88889 56.2655 8.5 55.9869C8.11111 55.7641 7.27777 55.597 6 55.597V55.207H12.3889L19.8333 65.6802L27.1111 55.207H33.5556V55.597C32.3333 55.6527 31.5555 55.8198 31.2222 56.0427C30.8889 56.2655 30.7222 56.7669 30.7222 57.4911V66.8501C30.7222 67.63 30.8889 68.1314 31.2222 68.2985C31.5555 68.4656 32.3333 68.6328 33.5556 68.7442V69.1341H24.4444V68.7442C25.7778 68.6885 26.5556 68.5213 26.8889 68.2985C27.2222 68.0757 27.3889 67.5186 27.3889 66.6273V57.2125L19.0556 69.1341H18.6111L10.4444 57.6582V66.0145C10.4444 67.1843 10.7222 67.9085 11.2222 68.2428C11.5556 68.4656 12.3333 68.6328 13.5 68.6885V69.0784H5.88889V68.7442Z" fill="#A72B2A"/>
<path d="M36.3889 69.1341V68.7441C37.2222 68.6884 37.8333 68.4656 38.2778 68.1313C38.7222 67.7971 39.3889 66.85 40.4444 65.3459L47.2222 55.2627H47.8889L56 66.9615C56.5556 67.7414 56.9444 68.187 57.2778 68.4099C57.6111 68.577 58.1667 68.7441 58.8889 68.7998V69.1898H50.6111V68.7998C51.5556 68.7441 52.1667 68.6884 52.4444 68.577C52.7222 68.5213 52.8333 68.2985 52.8333 68.0199C52.8333 67.9085 52.7778 67.7414 52.6667 67.4628C52.5556 67.1843 52.3889 66.9615 52.2222 66.6829L50.9444 64.6774H42.3889C41.5556 66.0144 41.0556 66.85 40.8889 67.1286C40.7222 67.4071 40.6667 67.6857 40.6667 67.8528C40.6667 68.187 40.8889 68.4656 41.3333 68.577C41.6111 68.6327 42.1111 68.7441 42.8889 68.7441V69.1341H36.3889ZM50.3889 63.8418L46.6667 58.1595L42.9444 63.8418H50.3889Z" fill="#A72B2A"/>
<path d="M62.1111 68.7441C63.4444 68.6884 64.2778 68.5213 64.5555 68.2984C64.8333 68.0756 65.0555 67.5185 65.0555 66.6272V57.5467C65.0555 56.7668 64.8889 56.3211 64.5 56.0983C64.1667 55.8754 63.3333 55.764 62.1111 55.7083V55.3184H71.3333V55.7083C70.0555 55.764 69.2222 55.8754 68.8889 56.0983C68.5 56.3211 68.3333 56.8225 68.3333 57.5467V61.8362C70.3333 60.7221 71.9444 59.775 73.2222 59.0508C75.5 57.6581 76.6111 56.7668 76.6111 56.3768C76.6111 56.0983 76.4444 55.9311 76.0555 55.8197C75.6667 55.7083 75.1111 55.7083 74.3889 55.7083V55.3184H82.8889V55.7083C81.8333 55.764 81.0555 55.9311 80.4444 56.0983C79.8333 56.2654 79 56.7111 77.9444 57.3796L71.6111 61.1677L79.3333 66.5715C80.7222 67.5185 81.7222 68.1313 82.2222 68.4098C82.7222 68.6884 83.5 68.7998 84.4444 68.8555V69.1898H74.5V68.8555C75.3889 68.8555 76 68.7998 76.3333 68.7441C76.6667 68.6884 76.8333 68.5213 76.8333 68.2984C76.8333 68.187 76.7222 68.0199 76.5 67.7413C76.2778 67.5185 75.9444 67.24 75.5 66.9057L69.2222 62.5605L68.2222 63.1732V66.9614C68.2222 67.7413 68.3889 68.2427 68.7778 68.4655C69.1667 68.6884 69.9444 68.7998 71.1667 68.8555V69.1898H62V68.7441H62.1111Z" fill="#A72B2A"/>
<path d="M88.3889 68.7441C89.6111 68.6884 90.3333 68.5213 90.7222 68.3542C91.0555 68.187 91.2778 67.6857 91.2778 66.9057V57.5467C91.2778 56.8225 91.1111 56.3212 90.7778 56.0983C90.4444 55.8755 89.6667 55.7084 88.4444 55.6527V55.2627H105.722L105.833 58.2709H105C104.722 57.3239 104.333 56.7668 103.778 56.4883C103.222 56.2097 102 56.0983 100.111 56.0983H95.6667C95.1667 56.0983 94.8889 56.154 94.7778 56.2654C94.6667 56.3769 94.6111 56.544 94.6111 56.8225V61.502H99.6111C101 61.502 101.889 61.3906 102.278 61.1121C102.667 60.8335 102.944 60.3322 103.222 59.4965H104V64.3432H103.222C103 63.5075 102.667 63.0062 102.278 62.7276C101.889 62.4491 101 62.3377 99.6667 62.3377H94.6667V67.5185C94.6667 67.9085 94.8889 68.187 95.2778 68.2428C95.6667 68.2985 96.8889 68.3542 98.9444 68.3542C101.167 68.3542 102.778 68.187 103.833 67.9085C104.889 67.5743 105.833 66.85 106.667 65.6245H107.556L106.056 69.1898H88.5V68.7441H88.3889Z" fill="#A72B2A"/>
<path d="M111 68.7442C112.333 68.6328 113.222 68.4656 113.611 68.1314C114 67.8528 114.167 67.1286 114.167 66.0145V56.7669L113.722 56.4326C113.222 56.0984 112.833 55.8198 112.5 55.7641C112.167 55.6527 111.667 55.6527 111 55.597V55.207H116.556L129.111 65.2345V58.271C129.111 57.1011 128.833 56.3769 128.333 56.0427C128 55.8198 127.222 55.6527 126 55.597V55.207H133.611V55.597C132.389 55.6527 131.556 55.8755 131.111 56.1541C130.722 56.4883 130.5 57.1568 130.5 58.271V69.3013H129.944L115.556 57.881V66.0702C115.556 67.24 115.833 67.9643 116.333 68.2985C116.667 68.5213 117.444 68.6885 118.611 68.7442V69.1341H111V68.7442Z" fill="#A72B2A"/>
<path d="M134.944 69.1338V68.7439C135.778 68.6882 136.389 68.4653 136.833 68.1311C137.278 67.7968 137.944 66.8498 139 65.2899L145.778 54.9839H146.444L154.556 66.8498C155.111 67.6297 155.5 68.1311 155.833 68.2982C156.167 68.4653 156.722 68.6324 157.444 68.6882V69.0781H149.167V68.6882C150.111 68.6324 150.722 68.5767 151 68.4653C151.278 68.4096 151.389 68.1868 151.389 67.9082C151.389 67.7968 151.333 67.6297 151.222 67.3512C151.111 67.0726 150.944 66.7941 150.778 66.5155L149.5 64.51H140.944C140.111 65.9027 139.611 66.7384 139.444 67.0169C139.278 67.2954 139.222 67.574 139.222 67.7411C139.222 68.0754 139.444 68.3539 139.889 68.4653C140.167 68.521 140.667 68.6324 141.444 68.6324V69.0224H134.944V69.1338ZM148.889 63.7301L145.167 57.9364L141.444 63.7301H148.889Z" fill="#A72B2A"/>
<path d="M51.7778 53.2573H43.0555V53.9815H51.7778V53.2573Z" fill="#A72B2A"/>
<path d="M40.8333 77.546C40.7778 76.8218 40.3333 76.6547 39.8889 76.6547C39.1666 76.6547 38.7778 77.0447 38.7778 78.6045C38.7778 80.1086 39.2222 80.4986 40.0555 80.4986C40.3889 80.4986 40.6666 80.4429 40.8889 80.3315V79.1059H39.8333V78.6045H41.4444V80.7771C41 80.9443 40.5 81 39.9444 81C38.8333 81 38.1111 80.4986 38.1111 78.6045C38.1111 76.599 38.8333 76.1533 39.8333 76.1533C40.7222 76.1533 41.2778 76.4876 41.3889 77.546H40.8333Z" fill="#A72B2A"/>
<path d="M45.9444 76.1533C47.0555 76.1533 47.7778 76.7104 47.7778 78.6045C47.7778 80.4429 47.1111 81.0557 45.9444 81.0557C44.8333 81.0557 44.1111 80.4986 44.1111 78.6045C44.1111 76.7104 44.8333 76.1533 45.9444 76.1533ZM45.9444 80.4986C46.6666 80.4986 47.1111 80.1086 47.1111 78.6045C47.1111 77.1004 46.6666 76.7104 45.9444 76.7104C45.2222 76.7104 44.7777 77.1004 44.7777 78.6045C44.7777 80.1086 45.2222 80.4986 45.9444 80.4986Z" fill="#A72B2A"/>
<path d="M50.5 76.209H51.1111V80.3871H52.9444V80.9442H50.4444V76.209H50.5Z" fill="#A72B2A"/>
<path d="M55.6666 76.209H58.2222V76.7661H56.3333V78.2702H58.0555V78.8273H56.3333V80.9442H55.7222V76.209H55.6666Z" fill="#A72B2A"/>
<path d="M65.8333 77.2117C65.7778 76.8218 65.6111 76.6547 65.1666 76.6547C64.7222 76.6547 64.4444 76.8218 64.4444 77.4346C64.4444 78.1588 64.8333 78.3259 65.2222 78.3259H65.8333V77.7688H66.4444V78.3259H67.1666V78.8273H66.4444V80.1643C66.4444 80.4985 66.6111 80.6099 66.8333 80.6099C67 80.6099 67.1111 80.5542 67.2222 80.4985V80.9999C67.1111 81.0556 66.8889 81.1113 66.6666 81.1113C66.3333 81.1113 66.0555 80.9999 65.9444 80.7214H65.8889C65.7222 80.9442 65.5 81.1113 64.9444 81.1113C64.2778 81.1113 63.6111 80.8885 63.6111 79.83C63.6111 78.9944 64.0555 78.7159 64.5 78.6044V78.5487C64.1111 78.4373 63.7778 78.2145 63.7778 77.4346C63.7778 76.5989 64.2222 76.209 65.1111 76.209C65.9444 76.209 66.3333 76.4875 66.3889 77.2674H65.8333V77.2117ZM65.1666 80.4985C65.6111 80.4985 65.8889 80.2757 65.8889 79.8857V78.7159H65.2222C64.7778 78.7159 64.3333 78.8273 64.3333 79.6072C64.3333 80.3871 64.7222 80.4985 65.1666 80.4985Z" fill="#A72B2A"/>
<path d="M75.2778 78.493C75.9444 78.5487 76.1666 78.9387 76.1666 79.6072C76.1666 80.6099 75.7222 80.9442 74.7778 80.9442H73.2222V76.209H74.6666C75.7777 76.209 76.0555 76.6546 76.0555 77.3789C76.0555 77.9916 75.8333 78.3259 75.2778 78.493ZM74.5555 78.2702C75.0555 78.2702 75.4444 78.1588 75.4444 77.4346C75.4444 76.8775 75.2777 76.7104 74.6666 76.7104H73.8333V78.2702H74.5555ZM74.6111 80.4428C75.2222 80.4428 75.5 80.3314 75.5 79.6072C75.5 78.8273 75.1111 78.7716 74.5555 78.7716H73.8333V80.4428H74.6111Z" fill="#A72B2A"/>
<path d="M79 76.209H81.6111V76.7661H79.6666V78.2702H81.4444V78.8273H79.6666V80.4428H81.6666V80.9999H79V76.209Z" fill="#A72B2A"/>
<path d="M85.5 76.1533H86.2222L87.7222 80.8885H87.0555L86.6666 79.6629H85L84.6666 80.8885H84L85.5 76.1533ZM86.5555 79.1616L85.8333 76.8775L85.1111 79.1616H86.5555Z" fill="#A72B2A"/>
<path d="M93.1111 79.273C93.1111 80.6657 92.4444 81 91.5 81C90.4444 81 89.7777 80.4429 89.7777 78.5488C89.7777 76.6547 90.4444 76.0977 91.5 76.0977C92.4444 76.0977 93.1111 76.4876 93.1111 77.7689H92.5C92.5 76.8219 92.0555 76.599 91.5 76.599C90.7777 76.599 90.3888 76.989 90.3888 78.4931C90.3888 79.9972 90.7777 80.3872 91.5 80.3872C92.1111 80.3872 92.4444 80.1086 92.5 79.1616H93.1111V79.273Z" fill="#A72B2A"/>
<path d="M95.7777 76.209H96.3889V78.2145H98.2777V76.209H98.8888V80.9442H98.3333V78.8273H96.4444V80.9442H95.8333V76.209H95.7777Z" fill="#A72B2A"/>
<path d="M108.611 79.273C108.611 80.6657 107.944 81 107 81C105.944 81 105.278 80.4429 105.278 78.5488C105.278 76.6547 105.944 76.0977 107 76.0977C107.944 76.0977 108.611 76.4876 108.611 77.7689H108C108 76.8219 107.556 76.599 107 76.599C106.278 76.599 105.889 76.989 105.889 78.4931C105.889 79.9972 106.278 80.3872 107 80.3872C107.611 80.3872 107.944 80.1086 108 79.1616H108.611V79.273Z" fill="#A72B2A"/>
<path d="M111.333 76.209H111.944V80.3871H113.778V80.9442H111.278V76.209H111.333Z" fill="#A72B2A"/>
<path d="M119.167 76.209V79.4958C119.167 80.5542 118.667 80.9999 117.611 80.9999C116.556 80.9999 116.056 80.5542 116.056 79.4958V76.209H116.667V79.4401C116.667 80.22 116.944 80.4985 117.556 80.4985C118.167 80.4985 118.444 80.22 118.444 79.4401V76.209H119.167Z" fill="#A72B2A"/>
<path d="M124.111 78.493C124.778 78.5487 125 78.9387 125 79.6072C125 80.6099 124.556 80.9442 123.611 80.9442H122.056V76.209H123.5C124.611 76.209 124.889 76.6546 124.889 77.3789C124.889 77.9916 124.667 78.3259 124.111 78.493ZM123.389 78.2702C123.889 78.2702 124.278 78.1588 124.278 77.4346C124.278 76.8775 124.111 76.7104 123.5 76.7104H122.667V78.2702H123.389ZM123.5 80.4428C124.111 80.4428 124.389 80.3314 124.389 79.6072C124.389 78.8273 124 78.7716 123.444 78.7716H122.722V80.4428H123.5Z" fill="#A72B2A"/>
</g>
<defs>
<clipPath id="clip0">
<rect width="159" height="81" fill="white"/>
</clipPath>
</defs>
</svg>
