<svg width="114" height="58" viewBox="0 0 114 58" fill="none" xmlns="http://www.w3.org/2000/svg">
<g clip-path="url(#clip0)">
<path d="M37.6016 15.8364C37.6016 15.8364 61.1026 12.1266 72.5743 10.0523C89.503 7.02069 101.971 3.86938 101.971 3.86938C98.5051 5.18575 83.7273 8.73596 71.8175 10.9698C44.0544 16.1555 37.6016 15.8364 37.6016 15.8364Z" fill="white"/>
<path d="M79.9434 17.2322C81.0985 18.1497 81.4968 18.8278 81.696 19.3863L83.3689 18.8677C83.2494 18.2694 82.8113 17.7109 81.696 16.7935L79.9434 17.2322Z" fill="white"/>
<path d="M62.0587 21.4609C63.0545 22.2587 63.8113 23.4155 63.9707 24.0139L65.7631 23.615C65.6038 22.8571 64.8868 21.8598 63.891 21.062L62.0587 21.4609Z" fill="white"/>
<path d="M113.124 0.358984C112.885 0.717994 111.769 1.79502 111.371 1.99447C110.893 2.2737 100.377 6.46215 71.2998 11.8872C62.1384 13.6025 50.1887 15.7964 39.3941 17.3521C38.9958 17.392 38.5577 17.392 38.1593 17.2723C37.2034 16.9931 35.7694 16.5942 34.3354 16.3549C33.0608 16.1554 31.7065 16.315 30.7904 16.6341C30.5912 16.7139 30.631 16.9133 30.8302 16.9133C31.7065 16.8734 32.4235 16.8734 32.9811 17.5117C32.9811 17.5117 10.8742 19.9051 7.96646 19.9051C6.37317 19.8652 3.34591 18.7483 2.78826 18.5089C2.31027 18.3095 0 18.5089 0 18.5089L5.89518 23.9738C5.97484 24.0536 6.05451 24.0935 6.174 24.0935C7.68763 24.3727 20.3941 26.5268 31.4675 25.9284C41.5849 25.37 59.8281 21.74 74.6059 18.11C89.2243 14.5199 103.046 9.57357 104.759 8.85555C111.212 6.14303 113.004 3.66985 113.681 3.0715C113.761 2.99172 113.801 2.91194 113.801 2.83216L114.04 0.0398644C114 -2.55629e-05 113.363 0.0398644 113.124 0.358984Z" fill="white"/>
<path d="M53.8532 26.3673C46.8826 27.5241 39.0754 27.7236 39.0754 27.7236C39.2348 28.0427 39.7924 29.1596 40.6687 29.6782C42.6603 30.7951 48.2369 31.8322 58.6331 29.7979C66.8784 28.1624 79.1865 24.2133 90.8176 19.7855C94.5618 18.3893 102.528 14.7992 106.193 11.249C106.193 11.249 100.975 13.3632 95.3983 15.3178C77.9517 21.4609 63.9706 24.6919 53.8532 26.3673Z" fill="white"/>
<path d="M4.22217 49.2243C5.17814 49.1445 5.81546 49.0248 6.09429 48.7855C6.37311 48.586 6.49261 48.0675 6.49261 47.2697V41.1665C6.49261 40.608 6.37311 40.2889 6.09429 40.0895C5.81546 39.9299 5.21798 39.8102 4.30183 39.8102V39.531H8.88254L14.2201 47.0303L19.4381 39.531H24.0586V39.8102C23.1823 39.8501 22.6247 39.9698 22.3857 40.1294C22.1467 40.2889 22.0272 40.6479 22.0272 41.1665V47.868C22.0272 48.4265 22.1467 48.7855 22.3857 48.9051C22.6247 49.0248 23.1823 49.1445 24.0586 49.2243V49.5035H17.5262V49.2243C18.4821 49.1844 19.0398 49.0647 19.2788 48.9051C19.5178 48.7456 19.6373 48.3467 19.6373 47.7084V40.967L13.6624 49.5035H13.3438L7.48842 41.2862V47.2697C7.48842 48.1073 7.68758 48.6259 8.04607 48.8653C8.28506 49.0248 8.84271 49.1445 9.67919 49.1844V49.4636H4.22217V49.2243Z" fill="white"/>
<path d="M26.0901 49.5034V49.2242C26.6876 49.1843 27.1257 49.0247 27.4444 48.7854C27.763 48.546 28.241 47.8679 28.9978 46.7909L33.8574 39.5708H34.3354L40.1509 47.9477C40.5492 48.5062 40.828 48.8253 41.067 48.9848C41.306 49.1045 41.7043 49.2242 42.2222 49.2641V49.5433H36.2872V49.2641C36.9643 49.2242 37.4025 49.1843 37.6016 49.1045C37.8008 49.0646 37.8804 48.9051 37.8804 48.7056C37.8804 48.6258 37.8406 48.5062 37.7609 48.3067C37.6813 48.1073 37.5618 47.9477 37.4423 47.7482L36.5261 46.3122H30.392C29.7945 47.2696 29.436 47.8679 29.3165 48.0674C29.197 48.2668 29.1572 48.4663 29.1572 48.5859C29.1572 48.8253 29.3165 49.0247 29.6352 49.1045C29.8343 49.1444 30.1928 49.2242 30.7505 49.2242V49.5034H26.0901ZM36.1278 45.7139L33.4591 41.6451L30.7903 45.7139H36.1278Z" fill="white"/>
<path d="M44.5325 49.2243C45.4885 49.1844 46.086 49.0648 46.2852 48.9052C46.4843 48.7456 46.6437 48.3467 46.6437 47.7085V41.2064C46.6437 40.648 46.5242 40.3289 46.2453 40.1693C46.0063 40.0097 45.4089 39.93 44.5325 39.8901V39.6108H51.1447V39.8901C50.2286 39.93 49.6311 40.0097 49.3921 40.1693C49.1133 40.3289 48.9938 40.6879 48.9938 41.2064V44.278C50.4277 43.4802 51.5829 42.802 52.499 42.2835C54.1321 41.2862 54.9288 40.648 54.9288 40.3687C54.9288 40.1693 54.8093 40.0496 54.5304 39.9698C54.2516 39.8901 53.8533 39.8901 53.3355 39.8901V39.6108H59.4298V39.8901C58.673 39.93 58.1154 40.0496 57.6772 40.1693C57.239 40.289 56.6416 40.6081 55.8848 41.0868L51.3439 43.7993L56.8806 47.6686C57.8764 48.3467 58.5933 48.7855 58.9518 48.985C59.3103 49.1844 59.868 49.2642 60.5451 49.3041V49.5434H53.4151V49.3041C54.0525 49.3041 54.4906 49.2642 54.7296 49.2243C54.9686 49.1844 55.0881 49.0648 55.0881 48.9052C55.0881 48.8254 55.0084 48.7057 54.8491 48.5063C54.6898 48.3467 54.4508 48.1473 54.1321 47.908L49.6311 44.7965L48.9141 45.2353V47.9478C48.9141 48.5063 49.0336 48.8653 49.3124 49.0249C49.5912 49.1844 50.1489 49.2642 51.0252 49.3041V49.5434H44.4529V49.2243H44.5325Z" fill="white"/>
<path d="M63.3732 49.2242C64.2495 49.1843 64.7673 49.0646 65.0461 48.9449C65.2851 48.8253 65.4444 48.4663 65.4444 47.9078V41.2063C65.4444 40.6877 65.3249 40.3287 65.086 40.1692C64.847 40.0096 64.2893 39.8899 63.413 39.85V39.5708H75.8008L75.8805 41.7249H75.283C75.0839 41.0467 74.805 40.6478 74.4067 40.4484C74.0084 40.2489 73.1321 40.1692 71.7778 40.1692H68.5912C68.2327 40.1692 68.0335 40.209 67.9539 40.2888C67.8742 40.3686 67.8344 40.4883 67.8344 40.6877V44.0385H71.4193C72.4151 44.0385 73.0524 43.9587 73.3312 43.7592C73.6101 43.5598 73.8092 43.2008 74.0084 42.6024H74.566V46.0729H74.0084C73.8491 45.4745 73.6101 45.1155 73.3312 44.9161C73.0524 44.7166 72.4151 44.6368 71.4591 44.6368H67.8742V48.3466C67.8742 48.6258 68.0335 48.8253 68.3124 48.8652C68.5912 48.9051 69.4675 48.9449 70.9413 48.9449C72.5346 48.9449 73.6897 48.8253 74.4465 48.6258C75.2033 48.3865 75.8805 47.8679 76.478 46.9903H77.1153L76.0398 49.5433H63.4528V49.2242H63.3732Z" fill="white"/>
<path d="M79.585 49.2243C80.5409 49.1445 81.1783 49.0248 81.4571 48.7855C81.7359 48.586 81.8554 48.0675 81.8554 47.2697V40.6479L81.5367 40.4086C81.1782 40.1692 80.8994 39.9698 80.6604 39.9299C80.4214 39.8501 80.0629 39.8501 79.585 39.8102V39.531H83.5682L92.5703 46.7112V41.725C92.5703 40.8873 92.3711 40.3687 92.0126 40.1294C91.7736 39.9698 91.216 39.8501 90.3397 39.8102V39.531H95.7967V39.8102C94.9204 39.8501 94.3229 40.0097 94.0042 40.2091C93.7254 40.4485 93.5661 40.9272 93.5661 41.725V49.6232H93.1678L82.8512 41.4457V47.3095C82.8512 48.1472 83.0504 48.6658 83.4089 48.9051C83.6478 49.0647 84.2055 49.1844 85.042 49.2243V49.5035H79.585V49.2243Z" fill="white"/>
<path d="M96.7526 49.5034V49.2242C97.35 49.1843 97.7882 49.0247 98.1069 48.7854C98.4255 48.546 98.9035 47.8679 99.6603 46.751L104.52 39.3713H104.998L110.813 47.8679C111.212 48.4264 111.491 48.7854 111.73 48.905C111.968 49.0247 112.367 49.1444 112.885 49.1843V49.4635H106.95V49.1843C107.627 49.1444 108.065 49.1045 108.264 49.0247C108.463 48.9848 108.543 48.8253 108.543 48.6258C108.543 48.546 108.503 48.4264 108.423 48.2269C108.344 48.0275 108.224 47.828 108.105 47.6286L107.189 46.1925H101.054C100.457 47.1898 100.098 47.7881 99.979 47.9876C99.8595 48.187 99.8197 48.3865 99.8197 48.5061C99.8197 48.7455 99.979 48.9449 100.298 49.0247C100.497 49.0646 100.855 49.1444 101.413 49.1444V49.4236H96.7526V49.5034ZM106.75 45.6341L104.082 41.4855L101.413 45.6341H106.75Z" fill="white"/>
<path d="M37.1238 38.1348H30.8701V38.6533H37.1238V38.1348Z" fill="white"/>
<path d="M29.2767 55.5268C29.2369 55.0082 28.9182 54.8886 28.5996 54.8886C28.0818 54.8886 27.8029 55.1678 27.8029 56.2847C27.8029 57.3617 28.1216 57.641 28.7191 57.641C28.9581 57.641 29.1572 57.6011 29.3166 57.5213V56.6437H28.5598V56.2847H29.7149V57.8404C29.3962 57.9601 29.0377 58 28.6394 58C27.8428 58 27.325 57.641 27.325 56.2847C27.325 54.8487 27.8428 54.5295 28.5598 54.5295C29.1971 54.5295 29.5954 54.7689 29.6751 55.5268H29.2767Z" fill="white"/>
<path d="M32.9414 54.5295C33.7381 54.5295 34.2559 54.9284 34.2559 56.2847C34.2559 57.6011 33.7779 58.0399 32.9414 58.0399C32.1448 58.0399 31.627 57.641 31.627 56.2847C31.627 54.9284 32.1448 54.5295 32.9414 54.5295ZM32.9414 57.641C33.4592 57.641 33.7779 57.3617 33.7779 56.2847C33.7779 55.2077 33.4592 54.9284 32.9414 54.9284C32.4236 54.9284 32.1049 55.2077 32.1049 56.2847C32.1049 57.3617 32.4236 57.641 32.9414 57.641Z" fill="white"/>
<path d="M36.2076 54.5693H36.6457V57.5611H37.9602V57.96H36.1677V54.5693H36.2076Z" fill="white"/>
<path d="M39.9119 54.5693H41.7442V54.9682H40.3899V56.0453H41.6247V56.4442H40.3899V57.96H39.9517V54.5693H39.9119Z" fill="white"/>
<path d="M47.2012 55.2874C47.1614 55.0081 47.0419 54.8885 46.7232 54.8885C46.4046 54.8885 46.2054 55.0081 46.2054 55.4469C46.2054 55.9655 46.4842 56.0852 46.763 56.0852H47.2012V55.6863H47.6394V56.0852H48.1572V56.4442H47.6394V57.4015C47.6394 57.6409 47.7589 57.7206 47.9182 57.7206C48.0377 57.7206 48.1173 57.6808 48.197 57.6409V57.9999C48.1173 58.0398 47.958 58.0797 47.7987 58.0797C47.5597 58.0797 47.3605 57.9999 47.2809 57.8004H47.241C47.1215 57.96 46.9622 58.0797 46.5639 58.0797C46.0859 58.0797 45.6079 57.9201 45.6079 57.1622C45.6079 56.5638 45.9266 56.3644 46.2452 56.2846V56.2447C45.9664 56.1649 45.7274 56.0054 45.7274 55.4469C45.7274 54.8486 46.0461 54.5693 46.6834 54.5693C47.2809 54.5693 47.5597 54.7688 47.5995 55.3272H47.2012V55.2874ZM46.7232 57.6409C47.0419 57.6409 47.241 57.4813 47.241 57.2021V56.3644H46.763C46.4444 56.3644 46.1257 56.4442 46.1257 57.0026C46.1257 57.5611 46.4046 57.6409 46.7232 57.6409Z" fill="white"/>
<path d="M53.9727 56.2048C54.4507 56.2447 54.61 56.5239 54.61 57.0026C54.61 57.7206 54.2914 57.96 53.6142 57.96H52.4989V54.5693H53.5345C54.3312 54.5693 54.5303 54.8885 54.5303 55.407C54.5303 55.8458 54.371 56.0852 53.9727 56.2048ZM53.4549 56.0453C53.8134 56.0453 54.0922 55.9655 54.0922 55.4469C54.0922 55.048 53.9727 54.9283 53.5345 54.9283H52.9371V56.0453H53.4549ZM53.4947 57.601C53.9329 57.601 54.132 57.5212 54.132 57.0026C54.132 56.4442 53.8532 56.4043 53.4549 56.4043H52.9371V57.601H53.4947Z" fill="white"/>
<path d="M56.6415 54.5693H58.5136V54.9682H57.1195V56.0453H58.3941V56.4442H57.1195V57.601H58.5534V57.9999H56.6415V54.5693Z" fill="white"/>
<path d="M61.3019 54.5295H61.8197L62.8952 57.9202H62.4172L62.1384 57.0426H60.9434L60.7044 57.9202H60.2264L61.3019 54.5295ZM62.0587 56.6836L61.5409 55.0481L61.0231 56.6836H62.0587Z" fill="white"/>
<path d="M66.759 56.7635C66.759 57.7607 66.281 58.0001 65.6038 58.0001C64.847 58.0001 64.369 57.6012 64.369 56.2449C64.369 54.8886 64.847 54.4897 65.6038 54.4897C66.281 54.4897 66.759 54.769 66.759 55.6864H66.3208C66.3208 55.0083 66.0021 54.8488 65.6038 54.8488C65.086 54.8488 64.8072 55.128 64.8072 56.205C64.8072 57.282 65.086 57.5613 65.6038 57.5613C66.042 57.5613 66.281 57.3618 66.3208 56.6837H66.759V56.7635Z" fill="white"/>
<path d="M68.6709 54.5693H69.1091V56.0054H70.4633V54.5693H70.9015V57.96H70.5032V56.4442H69.1489V57.96H68.7107V54.5693H68.6709Z" fill="white"/>
<path d="M77.8721 56.7635C77.8721 57.7607 77.3941 58.0001 76.717 58.0001C75.9602 58.0001 75.4822 57.6012 75.4822 56.2449C75.4822 54.8886 75.9602 54.4897 76.717 54.4897C77.3941 54.4897 77.8721 54.769 77.8721 55.6864H77.434C77.434 55.0083 77.1153 54.8488 76.717 54.8488C76.1992 54.8488 75.9203 55.128 75.9203 56.205C75.9203 57.282 76.1992 57.5613 76.717 57.5613C77.1551 57.5613 77.3941 57.3618 77.434 56.6837H77.8721V56.7635Z" fill="white"/>
<path d="M79.8239 54.5693H80.262V57.5611H81.5765V57.96H79.7841V54.5693H79.8239Z" fill="white"/>
<path d="M85.4402 54.5693V56.9228C85.4402 57.6808 85.0817 57.9999 84.3249 57.9999C83.5681 57.9999 83.2096 57.6808 83.2096 56.9228V54.5693H83.6478V56.883C83.6478 57.4414 83.8469 57.6409 84.2851 57.6409C84.7232 57.6409 84.9224 57.4414 84.9224 56.883V54.5693H85.4402Z" fill="white"/>
<path d="M88.9853 56.2048C89.4633 56.2447 89.6226 56.5239 89.6226 57.0026C89.6226 57.7206 89.3039 57.96 88.6268 57.96H87.5115V54.5693H88.5471C89.3438 54.5693 89.5429 54.8885 89.5429 55.407C89.5429 55.8458 89.3836 56.0852 88.9853 56.2048ZM88.4675 56.0453C88.8259 56.0453 89.1048 55.9655 89.1048 55.4469C89.1048 55.048 88.9853 54.9283 88.5471 54.9283H87.9496V56.0453H88.4675ZM88.5471 57.601C88.9853 57.601 89.1844 57.5212 89.1844 57.0026C89.1844 56.4442 88.9056 56.4043 88.5073 56.4043H87.9895V57.601H88.5471Z" fill="white"/>
</g>
<defs>
<clipPath id="clip0">
<rect width="114" height="58" fill="white"/>
</clipPath>
</defs>
</svg>
